#tb 0: 1/25
0,          0,          0,        1,   518400, 0xfbca00c6
0,          1,          1,        1,   518400, 0x82b80adf
0,          2,          2,        1,   518400, 0x4874c24c
0,          3,          3,        1,   518400, 0xdb19528a
0,          4,          4,        1,   518400, 0x27888656
0,          5,          5,        1,   518400, 0x5e7aa98f
0,          6,          6,        1,   518400, 0xb43ecd8b
0,          7,          7,        1,   518400, 0xef772cbd
0,          8,          8,        1,   518400, 0x4f1e1d7e
0,          9,          9,        1,   518400, 0x0e9fe921
0,         10,         10,        1,   518400, 0xe4dab3d2
0,         11,         11,        1,   518400, 0x9279587b
0,         12,         12,        1,   518400, 0xa8248296
0,         13,         13,        1,   518400, 0x7be6c0d6
0,         14,         14,        1,   518400, 0x85ea92b1
0,         15,         15,        1,   518400, 0x0c9074d6
0,         16,         16,        1,   518400, 0x5c95bf41
